<?xml version="1.0" encoding="utf-8"?>
<!-- Generator: Adobe Illustrator 21.1.0, SVG Export Plug-In . SVG Version: 6.00 Build 0)  -->
<svg version="1.1" id="Camada_1" xmlns="http://www.w3.org/2000/svg" xmlns:xlink="http://www.w3.org/1999/xlink" x="0px" y="0px"
	 viewBox="0 0 24 24" style="enable-background:new 0 0 24 24;" xml:space="preserve" height="24" width="24">
<g>
	<g>
		<path d="M2,14.1C3.5,9.9,5.1,5.8,6.6,1.7c0,0.1,0,0.1,0.1,0.1c0.9,2.6,1.7,5.2,2.6,7.9c0,0.1,0,0.1,0.1,0.1c1.8,0,3.5,0,5.3,0
			c0.1,0,0.1,0,0.1-0.1c0.9-2.6,1.7-5.3,2.6-7.9c0,0,0,0,0-0.1c1.5,4.1,3.1,8.2,4.6,12.4c0,0-0.1,0.1-0.1,0.1c-2,1.5-4.1,3-6.1,4.5
			c-1.2,0.9-2.5,1.8-3.7,2.7c0,0-0.1,0-0.1,0c-1.7-1.2-3.3-2.4-5-3.6C5.3,16.5,3.7,15.3,2,14.1C2,14.1,2,14.1,2,14.1z M10.7,18.6
			C10.6,18.6,10.6,18.5,10.7,18.6c-0.8-2.5-1.6-4.9-2.4-7.4c0-0.1,0-0.1-0.1-0.1c-1.2,0-2.4,0-3.5,0c-0.1,0-0.1,0-0.1,0.1
			C4.3,12,4,12.7,3.7,13.5c0,0.1,0,0.1,0,0.1c2,1.5,4.1,3,6.1,4.4C10.1,18.2,10.4,18.4,10.7,18.6z M13.3,18.6
			C13.4,18.6,13.4,18.6,13.3,18.6C13.4,18.6,13.4,18.6,13.3,18.6c2.3-1.7,4.6-3.3,6.9-5c0.1,0,0.1-0.1,0-0.1
			c-0.3-0.7-0.6-1.5-0.8-2.2c0-0.1,0-0.1-0.1-0.1c-1.2,0-2.3,0-3.5,0c-0.1,0-0.1,0-0.1,0.1c-0.7,2.2-1.5,4.5-2.2,6.7
			C13.5,18.2,13.4,18.4,13.3,18.6z"/>
	</g>
</g>
</svg>
