<?xml version="1.0" encoding="utf-8"?>
<!-- Generator: Adobe Illustrator 22.0.1, SVG Export Plug-In . SVG Version: 6.00 Build 0)  -->
<svg version="1.1" id="Camada_1" xmlns="http://www.w3.org/2000/svg" xmlns:xlink="http://www.w3.org/1999/xlink" x="0px" y="0px"
	 viewBox="0 0 80 80" style="enable-background:new 0 0 80 80;" xml:space="preserve">
<style type="text/css">
	.st0{fill:#6FC7F1;}
	.st1{fill:#F39835;}
	.st2{fill:#FFE83E;}
</style>
<title>Completa Colorida</title>
<g>
	<path class="st0" d="M57.3,44H22.7c-2.3,0-4.2-1.9-4.2-4.2l0,0c0-2.3,1.9-4.2,4.2-4.2h34.5c2.3,0,4.2,1.9,4.2,4.2l0,0
		C61.5,42.1,59.6,44,57.3,44z"/>
	<path class="st1" d="M57.3,61.5H22.7c-2.3,0-4.2-1.9-4.2-4.2l0,0c0-2.3,1.9-4.2,4.2-4.2h34.5c2.3,0,4.2,1.9,4.2,4.2l0,0
		C61.5,59.6,59.6,61.5,57.3,61.5z"/>
	<path class="st2" d="M57.3,26.9H22.7c-2.3,0-4.2-1.9-4.2-4.2l0,0c0-2.3,1.9-4.2,4.2-4.2h34.5c2.3,0,4.2,1.9,4.2,4.2l0,0
		C61.5,25.1,59.6,26.9,57.3,26.9z"/>
</g>
</svg>
