<svg id="Camada_1" data-name="Camada 1" xmlns="http://www.w3.org/2000/svg" viewBox="0 0 331.08 82.61"><defs><style>.cls-1{fill:#444;}</style></defs><title>Completa Simples</title><path class="cls-1" d="M41.88,68.47a31.31,31.31,0,0,0,6.74-.65,33,33,0,0,0,5.55-1.74v-12H46.33a3.8,3.8,0,0,1-2.72-.92,3.08,3.08,0,0,1-1-2.34V40.68H70.81V74.13A41.46,41.46,0,0,1,64.47,78a41,41,0,0,1-7,2.64,52.29,52.29,0,0,1-7.94,1.52,78.71,78.71,0,0,1-9.05.49,41.53,41.53,0,0,1-16.1-3.07A38.54,38.54,0,0,1,3.07,58.22,41.75,41.75,0,0,1,0,42.09,43.9,43.9,0,0,1,2.94,25.8,36.69,36.69,0,0,1,11.34,13,38.13,38.13,0,0,1,24.55,4.62a47.79,47.79,0,0,1,17.32-3,50.45,50.45,0,0,1,9.3.82,45.79,45.79,0,0,1,8,2.23A37,37,0,0,1,65.91,8a36.12,36.12,0,0,1,5.44,4.24L66,20.39a5.93,5.93,0,0,1-1.82,1.79,4.33,4.33,0,0,1-2.31.65,6.36,6.36,0,0,1-3.37-1.09q-2.18-1.31-4.11-2.26a25.22,25.22,0,0,0-3.94-1.55,25.94,25.94,0,0,0-4.24-.87,41.77,41.77,0,0,0-5-.27,22.83,22.83,0,0,0-9.3,1.82,20,20,0,0,0-7,5.14,23.24,23.24,0,0,0-4.49,8,32.11,32.11,0,0,0-1.58,10.36,33.33,33.33,0,0,0,1.74,11.2,24.08,24.08,0,0,0,4.81,8.27,20.42,20.42,0,0,0,7.29,5.14A23.59,23.59,0,0,0,41.88,68.47Z"/><path class="cls-1" d="M101.37,9.9a8.91,8.91,0,0,1-.82,3.78,9.94,9.94,0,0,1-2.23,3.1A10.91,10.91,0,0,1,95,18.9a10.21,10.21,0,0,1-4,.79,9.5,9.5,0,0,1-3.86-.79A10.84,10.84,0,0,1,84,16.78a9.76,9.76,0,0,1-2.18-3.1A9.16,9.16,0,0,1,81,9.9,9.49,9.49,0,0,1,81.82,6,10,10,0,0,1,84,2.88,10.21,10.21,0,0,1,87.18.76,9.78,9.78,0,0,1,91,0a10.52,10.52,0,0,1,4,.76A10.21,10.21,0,0,1,100.55,6,9.22,9.22,0,0,1,101.37,9.9Zm-2,15.45v56.4H82.55V25.34Z"/><path class="cls-1" d="M132.8,82.61a19.88,19.88,0,0,1-7.1-1.17,13.69,13.69,0,0,1-8.35-8.51,20.08,20.08,0,0,1-1.09-6.8V37h-4.79a3,3,0,0,1-3.15-3.32V27.08l9-1.74,3.32-13.76Q121.27,9,124.32,9h8.81V25.45h13.7V37h-13.7V65a5.27,5.27,0,0,0,1,3.24,3.22,3.22,0,0,0,2.75,1.28,5.36,5.36,0,0,0,1.55-.19,6.14,6.14,0,0,0,1.09-.43l.87-.44a2.24,2.24,0,0,1,1-.19,2,2,0,0,1,1.22.35,4.41,4.41,0,0,1,1,1.12l5.11,8a23.25,23.25,0,0,1-7.34,3.67A29.16,29.16,0,0,1,132.8,82.61Z"/><path class="cls-1" d="M207.52,2.5V16.64H175V35.13h24.91v13.6H175V67.6h32.52V81.74h-51V2.5Z"/><path class="cls-1" d="M257.56,81.74a4.65,4.65,0,0,1-2.64-.71,3.77,3.77,0,0,1-1.5-2.12l-1.31-4.3a33.07,33.07,0,0,1-3.54,3.26,22.22,22.22,0,0,1-4,2.53A21.17,21.17,0,0,1,240,82a23.85,23.85,0,0,1-5.36.57,17.37,17.37,0,0,1-8.16-2A18.79,18.79,0,0,1,220,75a28.53,28.53,0,0,1-4.27-9.05,44,44,0,0,1-1.55-12.21A38.06,38.06,0,0,1,215.9,42a28.73,28.73,0,0,1,4.92-9.35,22.87,22.87,0,0,1,7.64-6.17,21.7,21.7,0,0,1,9.84-2.23,18.9,18.9,0,0,1,7.37,1.28,21.29,21.29,0,0,1,5.47,3.34V.33H268V81.74ZM240.48,69.67a14.54,14.54,0,0,0,3.34-.35,11.75,11.75,0,0,0,2.75-1,12,12,0,0,0,2.37-1.63,20.48,20.48,0,0,0,2.2-2.28V40.46a11.15,11.15,0,0,0-4.16-3,12.9,12.9,0,0,0-4.65-.84,9.93,9.93,0,0,0-4.3.92,8.76,8.76,0,0,0-3.4,3,15.77,15.77,0,0,0-2.26,5.3,33,33,0,0,0-.82,7.88,36.53,36.53,0,0,0,.65,7.51A15.44,15.44,0,0,0,234,66.16a7.07,7.07,0,0,0,2.8,2.69A8,8,0,0,0,240.48,69.67Z"/><path class="cls-1" d="M296.82,25.34V61.13a9.84,9.84,0,0,0,1.9,6.47,6.87,6.87,0,0,0,5.6,2.28,12,12,0,0,0,5.19-1.14,19.39,19.39,0,0,0,4.7-3.21V25.34h16.86v56.4H320.64a4,4,0,0,1-4.13-2.83l-1-3.26a32.66,32.66,0,0,1-3.37,2.86,20.61,20.61,0,0,1-3.73,2.17,22.24,22.24,0,0,1-4.27,1.41,22.68,22.68,0,0,1-5,.52,19.74,19.74,0,0,1-8.18-1.6,16.81,16.81,0,0,1-6-4.49,19.56,19.56,0,0,1-3.7-6.8A28.11,28.11,0,0,1,280,61.13V25.34Z"/></svg>