<svg id="Camada_1" data-name="Camada 1" xmlns="http://www.w3.org/2000/svg" viewBox="0 0 216.3 82.35"><defs><style>.cls-1{fill:#6fc7f1;}.cls-2{fill:#444;}.cls-3{fill:#f39835;}.cls-4{fill:#ffe83e;}</style></defs><title>Reduz Colorida</title><rect class="cls-1" x="89.47" y="37.97" width="126.83" height="8.38" rx="4.19" ry="4.19"/><path class="cls-2" d="M198,81.43a4.64,4.64,0,0,1-2.64-.71,3.76,3.76,0,0,1-1.49-2.12l-1.29-4.3a33.13,33.13,0,0,1-3.54,3.25,22.22,22.22,0,0,1-4,2.52,21.19,21.19,0,0,1-4.63,1.62,23.84,23.84,0,0,1-5.36.55,17.37,17.37,0,0,1-8.15-2,18.79,18.79,0,0,1-6.45-5.67,28.53,28.53,0,0,1-4.24-9.07,44,44,0,0,1-1.51-12.21,38.06,38.06,0,0,1,1.78-11.71,28.74,28.74,0,0,1,4.95-9.34,22.87,22.87,0,0,1,7.66-6.15,21.71,21.71,0,0,1,9.85-2.2,18.91,18.91,0,0,1,7.37,1.3,21.31,21.31,0,0,1,5.46,3.36L191.87,0l16.86.05-.24,81.41ZM181,69.31a14.57,14.57,0,0,0,3.34-.34,11.76,11.76,0,0,0,2.75-1,12,12,0,0,0,2.37-1.62,20.44,20.44,0,0,0,2.21-2.28l.07-23.93a11.15,11.15,0,0,0-4.15-3,12.91,12.91,0,0,0-4.65-.86,9.94,9.94,0,0,0-4.3.91,8.77,8.77,0,0,0-3.41,3,15.78,15.78,0,0,0-2.27,5.3,33,33,0,0,0-.84,7.88,36.55,36.55,0,0,0,.63,7.51,15.43,15.43,0,0,0,1.81,4.93,7.07,7.07,0,0,0,2.79,2.7A8,8,0,0,0,181,69.31Z"/><rect class="cls-3" x="9" y="55.42" width="171.82" height="8.39" rx="4.2" ry="4.2"/><path class="cls-2" d="M148.07,2.24V16.38H115.55V34.87h24.91v13.6H115.55V67.34h32.52V81.48h-51V2.24Z"/><rect class="cls-4" y="20.52" width="124.01" height="8.38" rx="4.19" ry="4.19"/><path class="cls-2" d="M56.87,68.21a31.25,31.25,0,0,0,6.74-.65,33,33,0,0,0,5.55-1.74v-12H61.33a3.8,3.8,0,0,1-2.72-.92,3.07,3.07,0,0,1-1-2.34V40.42H85.8V73.87a41.41,41.41,0,0,1-6.34,3.83,40.86,40.86,0,0,1-7,2.64,52.28,52.28,0,0,1-7.94,1.52,78.71,78.71,0,0,1-9.05.49,41.53,41.53,0,0,1-16.1-3.07A38.53,38.53,0,0,1,18.07,58,41.75,41.75,0,0,1,15,41.84a43.9,43.9,0,0,1,2.94-16.29,36.69,36.69,0,0,1,8.4-12.81A38.12,38.12,0,0,1,39.55,4.37a47.78,47.78,0,0,1,17.32-3,50.49,50.49,0,0,1,9.3.82,45.79,45.79,0,0,1,8,2.23,37,37,0,0,1,6.72,3.37A36.19,36.19,0,0,1,86.35,12L81,20.14a5.92,5.92,0,0,1-1.82,1.79,4.33,4.33,0,0,1-2.31.65,6.36,6.36,0,0,1-3.37-1.09q-2.18-1.31-4.11-2.26a25.25,25.25,0,0,0-3.94-1.55,25.94,25.94,0,0,0-4.24-.87,41.66,41.66,0,0,0-5-.27,22.83,22.83,0,0,0-9.3,1.82,20,20,0,0,0-7,5.14,23.24,23.24,0,0,0-4.49,8,32.11,32.11,0,0,0-1.58,10.36A33.34,33.34,0,0,0,35.55,53a24.06,24.06,0,0,0,4.81,8.27,20.42,20.42,0,0,0,7.29,5.14A23.57,23.57,0,0,0,56.87,68.21Z"/><polygon class="cls-3" points="37.24 55.42 15.44 55.42 17.42 63.81 45.63 63.81 37.24 55.42"/><rect class="cls-1" x="152.04" y="37.97" width="28.32" height="8.38"/><rect class="cls-4" x="15.44" y="20.52" width="30.19" height="8.38"/></svg>