<svg id="Camada_1" data-name="Camada 1" xmlns="http://www.w3.org/2000/svg" viewBox="0 0 193.49 82.28"><defs><style>.cls-1{fill:#444;}</style></defs><title>Reduz Simples</title><path class="cls-1" d="M41.88,68.14a31.31,31.31,0,0,0,6.74-.65,33,33,0,0,0,5.55-1.74v-12H46.33a3.8,3.8,0,0,1-2.72-.92,3.08,3.08,0,0,1-1-2.34V40.35H70.81V73.8a41.43,41.43,0,0,1-6.33,3.83,41,41,0,0,1-7,2.64,52.3,52.3,0,0,1-7.94,1.52,78.7,78.7,0,0,1-9.05.49,41.54,41.54,0,0,1-16.1-3.07A38.54,38.54,0,0,1,3.07,57.89,41.74,41.74,0,0,1,0,41.77,43.9,43.9,0,0,1,2.94,25.48a36.69,36.69,0,0,1,8.4-12.81A38.13,38.13,0,0,1,24.55,4.3a47.79,47.79,0,0,1,17.32-3,50.45,50.45,0,0,1,9.3.82,45.79,45.79,0,0,1,8,2.23,36.93,36.93,0,0,1,6.72,3.37A36.12,36.12,0,0,1,71.35,12L66,20.07a5.94,5.94,0,0,1-1.82,1.79,4.33,4.33,0,0,1-2.31.65,6.35,6.35,0,0,1-3.37-1.09q-2.18-1.31-4.11-2.26a25.2,25.2,0,0,0-3.94-1.55,25.93,25.93,0,0,0-4.24-.87,41.77,41.77,0,0,0-5-.27,22.83,22.83,0,0,0-9.3,1.82,20,20,0,0,0-7,5.14,23.24,23.24,0,0,0-4.49,8,32.11,32.11,0,0,0-1.58,10.36A33.32,33.32,0,0,0,20.56,53a24.08,24.08,0,0,0,4.81,8.27,20.42,20.42,0,0,0,7.29,5.14A23.58,23.58,0,0,0,41.88,68.14Z"/><path class="cls-1" d="M133,2.18V16.32H100.5V34.81h24.91V48.4H100.5V67.27H133V81.41H82V2.18Z"/><path class="cls-1" d="M183.05,81.41a4.65,4.65,0,0,1-2.64-.71,3.77,3.77,0,0,1-1.5-2.12l-1.31-4.3a33.07,33.07,0,0,1-3.54,3.26,22.21,22.21,0,0,1-4,2.53,21.17,21.17,0,0,1-4.62,1.63,23.86,23.86,0,0,1-5.36.57,17.37,17.37,0,0,1-8.16-2,18.78,18.78,0,0,1-6.47-5.66,28.52,28.52,0,0,1-4.27-9.05,44,44,0,0,1-1.55-12.21,38.08,38.08,0,0,1,1.74-11.72,28.74,28.74,0,0,1,4.92-9.35A22.88,22.88,0,0,1,154,26.16a21.7,21.7,0,0,1,9.84-2.23,18.91,18.91,0,0,1,7.37,1.28,21.29,21.29,0,0,1,5.47,3.34V0h16.86V81.41ZM166,69.34a14.53,14.53,0,0,0,3.34-.35,11.74,11.74,0,0,0,2.75-1,12,12,0,0,0,2.37-1.63,20.48,20.48,0,0,0,2.2-2.28V40.13a11.15,11.15,0,0,0-4.16-3,12.9,12.9,0,0,0-4.65-.84,9.93,9.93,0,0,0-4.3.92,8.76,8.76,0,0,0-3.4,3,15.78,15.78,0,0,0-2.26,5.3,32.93,32.93,0,0,0-.82,7.88,36.5,36.5,0,0,0,.65,7.51,15.44,15.44,0,0,0,1.82,4.92,7.08,7.08,0,0,0,2.8,2.69A8,8,0,0,0,166,69.34Z"/></svg>